<?xml version="1.0" standalone="no"?><!DOCTYPE svg PUBLIC "-//W3C//DTD SVG 1.1//EN" "http://www.w3.org/Graphics/SVG/1.1/DTD/svg11.dtd"><svg t="1704794190998" class="icon" viewBox="0 0 1024 1024" version="1.1" xmlns="http://www.w3.org/2000/svg" p-id="3045" xmlns:xlink="http://www.w3.org/1999/xlink" width="48" height="48"><path d="M1022.912 512v0.608C1022.912 795.04 793.952 1024 511.52 1024S0.128 795.04 0.128 512.608c0-215.424 133.184-399.744 321.728-475.072l3.456-1.216C380.448 13.536 444.448 0.288 511.552 0.288s131.104 13.248 189.536 37.248l-3.328-1.216C889.632 112.704 1022.816 296.8 1022.944 512zM314.816 404.224a225.088 225.088 0 0 0 107.232 196.608l0.96 0.544a173.12 173.12 0 0 0 88.288 23.872c31.392 0 60.864-8.256 86.368-22.72l-0.864 0.448c67.008-39.68 111.232-111.616 111.232-193.856l-0.064-5.12v0.256a197.92 197.92 0 1 0-393.408 0.896l-0.096-0.896z m198.56 585.568h0.416c148.8 0 281.664-68.32 368.896-175.328l0.672-0.864c-10.336-84.8-92.96-157.024-209.952-193.024a237.12 237.12 0 0 1-162.08 63.68 237.184 237.184 0 0 1-165.312-66.752l0.064 0.064c-113.824 32.48-197.152 98.72-216.704 178.112 87.584 118.272 226.624 194.112 383.392 194.112h0.672-0.032z" p-id="3046" fill="#707070"></path></svg>