<?xml version="1.0" standalone="no"?><!DOCTYPE svg PUBLIC "-//W3C//DTD SVG 1.1//EN" "http://www.w3.org/Graphics/SVG/1.1/DTD/svg11.dtd"><svg t="1704794634076" class="icon" viewBox="0 0 1024 1024" version="1.1" xmlns="http://www.w3.org/2000/svg" p-id="18585" width="64" height="64" xmlns:xlink="http://www.w3.org/1999/xlink"><path d="M857.9072 38.7072a63.015385 63.015385 0 0 1 59.139938 41.243569L1012.137354 338.030277h-1.984985A63.046892 63.046892 0 0 0 949.121969 290.768738H66.906585a63.046892 63.046892 0 0 0-61.0304 47.261539H3.8912L98.981415 79.950769A63.015385 63.015385 0 0 1 158.1056 38.7072h699.817354z" fill="#939598" p-id="18586"></path><path d="M857.9072 38.7072a63.015385 63.015385 0 0 1 59.139938 41.243569L1012.137354 338.030277h-1.984985a63.046892 63.046892 0 0 0-57.785107-47.182769L949.121969 290.768738 508.014277 290.768738V38.7072h349.892923z" fill="#6D6E71" p-id="18587"></path><path d="M3.8912 338.046031m63.015385 0l882.215384 0q63.015385 0 63.015385 63.015384l0 519.876923q0 63.015385-63.015385 63.015385l-882.215384 0q-63.015385 0-63.015385-63.015385l0-519.876923q0-63.015385 63.015385-63.015384Z" fill="#D1D3D4" p-id="18588"></path><path d="M949.121969 983.937969H66.906585a62.983877 62.983877 0 0 1-54.098708-30.672738h990.4128A62.983877 62.983877 0 0 1 949.121969 983.953723z" fill="#9AAAF5" p-id="18589"></path><path d="M508.014277 338.030277h441.107692a63.015385 63.015385 0 0 1 63.015385 63.015385v519.876923a63.015385 63.015385 0 0 1-63.015385 63.015384H508.014277V338.030277z" fill="#BCBEC0" p-id="18590"></path><path d="M949.121969 983.937969H508.014277v-30.672738h495.2064A62.983877 62.983877 0 0 1 949.121969 983.953723z" fill="#6578D0" p-id="18591"></path><path d="M129.921969 495.584492m-63.015384 0a63.015385 63.015385 0 1 0 126.030769 0 63.015385 63.015385 0 1 0-126.030769 0Z" fill="#9AAAF5" p-id="18592"></path><path d="M287.460431 408.938338m31.507692 0l598.646154 0q31.507692 0 31.507692 31.507693l0 441.107692q0 31.507692-31.507692 31.507692l-598.646154 0q-31.507692 0-31.507692-31.507692l0-441.107692q0-31.507692 31.507692-31.507693Z" fill="#F9F9F9" p-id="18593"></path><path d="M508.014277 408.922585h409.6a31.507692 31.507692 0 0 1 31.507692 31.507692v441.107692a31.507692 31.507692 0 0 1-31.507692 31.507693H508.014277v-504.123077z" fill="#D1D3D4" p-id="18594"></path><path d="M350.475815 471.937969m31.507693 0l63.015384 0q31.507692 0 31.507693 31.507693l0 315.076923q0 31.507692-31.507693 31.507692l-63.015384 0q-31.507692 0-31.507693-31.507692l0-315.076923q0-31.507692 31.507693-31.507693Z" fill="#939598" p-id="18595"></path><path d="M413.4912 534.953354m-31.507692 0a31.507692 31.507692 0 1 0 63.015384 0 31.507692 31.507692 0 1 0-63.015384 0Z" fill="#FFFFFF" p-id="18596"></path><path d="M555.275815 471.937969m31.507693 0l63.015384 0q31.507692 0 31.507693 31.507693l0 315.076923q0 31.507692-31.507693 31.507692l-63.015384 0q-31.507692 0-31.507693-31.507692l0-315.076923q0-31.507692 31.507693-31.507693Z" fill="#6D6E71" p-id="18597"></path><path d="M618.2912 534.953354m-31.507692 0a31.507692 31.507692 0 1 0 63.015384 0 31.507692 31.507692 0 1 0-63.015384 0Z" fill="#D1D3D4" p-id="18598"></path><path d="M760.075815 471.937969m31.507693 0l63.015384 0q31.507692 0 31.507693 31.507693l0 315.076923q0 31.507692-31.507693 31.507692l-63.015384 0q-31.507692 0-31.507693-31.507692l0-315.076923q0-31.507692 31.507693-31.507693Z" fill="#6D6E71" p-id="18599"></path><path d="M823.0912 534.953354m-31.507692 0a31.507692 31.507692 0 1 0 63.015384 0 31.507692 31.507692 0 1 0-63.015384 0Z" fill="#D1D3D4" p-id="18600"></path></svg>